# xmcd
#
# Track frame offsets: 
#        150
#        18805
#        40498
#        62265
#        79872
#        95285
#        110824
#        126166
#        142408
#        160514
#        177737
#
# Disc length: 2726 seconds
#
# Revision: 1
# Processed by: cddbd v1.5.2PL0 Copyright (c) Steve Scherf et al.
# Submitted via: ExactAudioCopy v1.0b3
#
DISCID=930aa40b
DTITLE=J. J. Burner - Roll On
DYEAR=2010
DGENRE=Blues
TTITLE0=Laughin' Bout My Baby
TTITLE1=Starlite Blue
TTITLE2=Ain't Nobody Don't Like Money
TTITLE3=Tender Touch
TTITLE4=Why
TTITLE5=Roll On
TTITLE6=Troubles
TTITLE7=Untangled
TTITLE8=Broken Bed
TTITLE9=Married Man
TTITLE10=Desperate And Blue
EXTD=
EXTT0=
EXTT1=
EXTT2=
EXTT3=
EXTT4=
EXTT5=
EXTT6=
EXTT7=
EXTT8=
EXTT9=
EXTT10=
PLAYORDER=
